<svg width="40" height="40" viewBox="0 0 40 40" fill="none" xmlns="http://www.w3.org/2000/svg">
    <path d="M0 20C0 31.0457 8.95431 40 20 40C31.0457 40 40 31.0457 40 20C40 8.95431 31.0457 0 20 0C8.95431 0 0 8.95431 0 20Z" fill="#7248BD"/>
    <path d="M16.765 12.7746C16.7857 12.7137 16.8094 12.654 16.8362 12.5955C16.8955 12.4526 16.9651 12.3142 17.0447 12.1814C17.1461 12.0294 17.2652 11.89 17.3995 11.7661C17.5323 11.6403 17.6835 11.5356 17.848 11.4556C17.9331 11.4117 18.0204 11.3723 18.1096 11.3377C18.209 11.2992 18.3112 11.268 18.4152 11.2444C18.5127 11.222 18.5292 11.2119 19.0412 11.1566C21.343 11.16 23.6448 11.1608 25.9466 11.1591H26.0903C26.0823 8.62364 26.0904 11.1631 26.0809 8.61572C23.8383 8.61572 21.5956 8.61627 19.3529 8.61737C19.1896 8.61755 18.7062 8.65009 18.5749 8.66504C18.4233 8.68061 17.6176 8.79456 17.2105 8.94104C16.9702 9.02748 16.5975 9.1771 16.4011 9.29346C15.8529 9.61837 15.6099 9.82281 15.0638 10.4616C14.8706 10.6877 14.6712 11.0003 14.4921 11.5049C14.3504 11.8767 14.247 12.262 14.1834 12.6548C14.13 12.9597 14.0991 13.2682 14.0908 13.5777C14.0702 14.1885 14.0891 14.8001 14.0891 15.4113V15.5672H11.2832V17.9644H14.0929V30.7346H16.6377V17.9643H23.5544V30.7338H26.0897V15.5621H16.6325C16.6325 15.5234 16.6014 14.0439 16.6622 13.339C16.6694 13.2082 16.6853 13.0782 16.7101 12.9496" fill="white"/>
</svg>