<svg width="808" height="270" viewBox="0 0 808 270" fill="none" xmlns="http://www.w3.org/2000/svg">
    <path d="M92.1 213C80.38 213.087 68.915 209.58 59.25 202.95C49.35 196.252 41.5 187.052 35.7001 175.35C29.8968 163.65 26.9968 150.3 27 135.3C27 120.3 29.8 106.9 35.4 95.0996C40.9969 83.3018 48.6969 74.002 58.5 67.2002C68.3631 60.3812 80.1106 56.8149 92.1 57C103.298 57 112.448 59.0501 119.55 63.1504C126.514 67.1131 132.19 72.9972 135.9 80.0996C139.895 87.9087 142.581 96.3207 143.85 105C145.397 115.025 146.149 125.156 146.1 135.3C146.033 143.604 145.229 151.887 143.7 160.05C142.12 168.885 139.344 177.463 135.45 185.55C131.744 193.415 126.122 200.223 119.1 205.35C112.097 210.45 103.097 213 92.1 213ZM98.1 190.2C108.3 190.2 116.75 187.7 123.45 182.7C130.214 177.615 135.37 170.689 138.3 162.75C141.584 153.975 143.211 144.668 143.1 135.3C143.1 124.303 141.45 114.653 138.15 106.35C135.198 98.5038 129.976 91.7151 123.15 86.8496C116.447 82.1533 108.097 79.8034 98.1 79.7998C83.1 79.7998 71.5 85.0498 63.3001 95.5498C55.0969 106.05 50.9969 119.3 51 135.3C51 145.903 53.05 155.354 57.15 163.65C60.894 171.543 66.6979 178.28 73.9501 183.15C81.1106 187.87 89.5251 190.326 98.1 190.2V190.2ZM143.1 0H167.1V210H145.2C144.797 205.604 144.347 200.404 143.85 194.4C143.349 188.4 143.099 183.6 143.1 180V0Z" fill="currentColor"/>
    <path d="M240.302 0V29.0996H209.102V0H240.302ZM212.702 60H236.702V210H212.702V60Z" fill="currentColor"/>
    <path d="M331.5 186.3C320.968 186.318 310.6 183.688 301.35 178.651C291.807 173.512 283.827 165.894 278.25 156.6C272.349 147 269.399 135.5 269.4 122.1C269.4 108.703 272.3 97.1535 278.1 87.4503C284.454 76.7573 293.866 68.2129 305.122 62.9192C316.378 57.6254 328.962 55.825 341.25 57.7502C344.262 58.2303 347.225 58.9834 350.1 60.0002H411V85.8C402.23 85.7693 393.538 84.1429 385.35 81.0002C377.856 78.2649 370.585 74.9549 363.6 71.0998L362.4 69.9005C368.918 73.3223 374.763 77.8961 379.65 83.4005C384.123 88.5576 387.583 94.5115 389.85 100.95C392.198 107.752 393.365 114.905 393.3 122.1C393.3 135.502 390.45 147.002 384.75 156.6C379.368 165.89 371.532 173.519 362.1 178.651C352.711 183.747 342.183 186.379 331.5 186.3V186.3ZM375.6 270V263.401C375.6 252.797 372.85 245.097 367.35 240.3C361.847 235.5 353.597 233.1 342.6 233.1H312.6C306.807 233.179 301.023 232.625 295.35 231.45C291.023 230.587 286.899 228.907 283.2 226.5C280.145 224.462 277.666 221.673 276 218.401C274.363 215.039 273.54 211.339 273.6 207.6C273.6 200.002 275.9 194.252 280.5 190.35C285.387 186.326 291.318 183.776 297.6 183C304.062 182.002 310.639 182.002 317.1 183L331.5 186.3C320.7 186.901 312.35 188 306.45 189.6C300.549 191.203 297.599 194.603 297.6 199.8C297.566 201.209 297.86 202.606 298.459 203.882C299.058 205.157 299.945 206.276 301.05 207.151C303.347 209.053 306.797 210.003 311.4 210H342.6C352.274 209.887 361.901 211.356 371.1 214.35C379.349 217.001 386.579 222.135 391.8 229.05C396.999 235.95 399.599 245.401 399.6 257.401V270L375.6 270ZM331.5 163.8C338.101 163.854 344.594 162.127 350.296 158.801C355.998 155.475 360.698 150.673 363.9 144.901C367.5 138.703 369.3 131.103 369.3 122.1C369.3 113.1 367.55 105.45 364.05 99.1505C360.834 93.1434 356.002 88.1555 350.1 84.7502C344.438 81.5065 338.026 79.8 331.5 79.8C324.975 79.8 318.563 81.5065 312.9 84.7502C307.004 88.1458 302.133 93.0687 298.8 99.0002C295.2 105.201 293.4 112.901 293.4 122.1C293.4 131.1 295.2 138.7 298.8 144.901C302.108 150.813 306.988 155.693 312.9 159C318.585 162.171 324.991 163.824 331.5 163.8Z" fill="currentColor"/>
    <path d="M468.899 0V29.0996H437.699V0H468.899ZM441.299 60H465.299V210H441.299V60Z" fill="currentColor"/>
    <path d="M495.898 60H584.098V82.5H495.898V60ZM527.999 21H551.999V210H527.999V21Z" fill="currentColor"/>
    <path d="M666.297 213C654.675 213.057 643.314 209.55 633.747 202.95C623.847 196.252 615.947 187.052 610.047 175.35C604.146 163.651 601.196 150.301 601.197 135.3C601.197 120.3 604.197 106.9 610.197 95.0999C615.749 83.8099 624.183 74.1857 634.647 67.2005C644.916 60.4102 656.987 56.8569 669.297 57.0003C683.294 57.0003 693.944 60.5504 701.247 67.6507C708.546 74.7522 713.546 84.2021 716.247 96.0003C719.064 108.907 720.422 122.09 720.297 135.3C720.23 143.605 719.427 151.887 717.897 160.05C716.317 168.885 713.541 177.464 709.647 185.55C705.941 193.415 700.319 200.223 693.297 205.35C686.294 210.45 677.294 213.001 666.297 213ZM672.297 190.2C682.497 190.2 690.947 187.7 697.647 182.7C704.411 177.616 709.567 170.689 712.497 162.75C715.781 153.976 717.408 144.668 717.297 135.3C717.297 124.303 715.647 114.653 712.347 106.35C709.395 98.5041 704.173 91.7154 697.347 86.8499C690.644 82.1536 682.294 79.8037 672.297 79.8001C657.297 79.8001 645.697 85.0501 637.497 95.5501C629.294 106.05 625.194 119.3 625.197 135.3C625.197 145.904 627.247 155.354 631.347 163.651C635.091 171.544 640.895 178.28 648.147 183.151C655.308 187.87 663.722 190.326 672.297 190.2V190.2ZM717.297 60.0003H741.297V210H719.397C718.797 202.8 718.297 196.8 717.897 192C717.494 187.2 717.294 183.2 717.297 180V60.0003Z" fill="currentColor"/>
    <path d="M783.293 0H807.293V210H783.293V0Z" fill="currentColor"/>
</svg>