<svg width="1064" height="270" viewBox="0 0 1064 270" fill="none" xmlns="http://www.w3.org/2000/svg">
    <path d="M0 59.9998H23.1L24 91.4998V270H0V59.9998ZM75 213C63.9984 213 54.9984 210.45 48 205.349C40.9768 200.224 35.3545 193.416 31.65 185.55C27.7536 177.464 24.978 168.885 23.4 160.05C21.8682 151.887 21.065 143.604 21 135.3C20.9506 125.156 21.7029 115.025 23.25 105C24.5171 96.32 27.203 87.9076 31.2 80.0994C34.9068 72.995 40.5836 67.1102 47.55 63.1502C54.6469 59.0526 63.7969 57.0024 75 56.9998C86.6969 56.9071 98.1302 60.4735 107.7 67.2C117.497 74.0018 125.347 83.3016 131.25 95.0994C137.147 106.903 140.097 120.303 140.1 135.3C140.1 150.3 137.1 163.65 131.1 175.349C125.1 187.05 117.15 196.25 107.25 202.95C97.7798 209.517 86.5245 213.025 75 213V213ZM69 190.2C77.6723 190.353 86.1906 187.897 93.45 183.15C100.681 178.297 106.44 171.552 110.1 163.65C114.098 155.353 116.098 145.903 116.1 135.3C116.1 119.302 112 106.052 103.8 95.5496C95.5969 85.0496 83.9969 79.7996 69 79.7996C60.6571 79.662 52.4784 82.126 45.6 86.8494C38.6159 91.7725 33.1163 98.5173 29.7 106.349C25.8984 114.651 23.9984 124.301 24 135.3C23.8864 144.681 25.5666 153.999 28.95 162.75C31.9499 170.651 37.0923 177.559 43.8 182.7C50.4 187.701 58.8 190.201 69 190.2V190.2Z" fill="currentColor"/>
    <path d="M227.395 213C215.773 213.057 204.412 209.55 194.845 202.95C184.945 196.252 177.045 187.052 171.145 175.35C165.243 163.651 162.293 150.301 162.295 135.3C162.295 120.3 165.295 106.9 171.295 95.0999C176.847 83.8099 185.281 74.1857 195.745 67.2005C206.014 60.4102 218.085 56.8569 230.395 57.0003C244.392 57.0003 255.042 60.5504 262.345 67.6507C269.644 74.7522 274.644 84.2021 277.345 96.0003C280.162 108.907 281.52 122.09 281.395 135.3C281.328 143.605 280.525 151.887 278.995 160.05C277.415 168.885 274.639 177.464 270.745 185.55C267.039 193.415 261.417 200.223 254.395 205.35C247.392 210.45 238.392 213.001 227.395 213ZM233.395 190.2C243.595 190.2 252.045 187.7 258.745 182.7C265.509 177.615 270.665 170.689 273.595 162.75C276.879 153.976 278.506 144.668 278.395 135.3C278.395 124.303 276.745 114.653 273.445 106.35C270.493 98.5041 265.271 91.7154 258.445 86.8499C251.742 82.1536 243.392 79.8037 233.395 79.8001C218.395 79.8001 206.795 85.0501 198.595 95.5501C190.392 106.05 186.292 119.3 186.295 135.3C186.295 145.904 188.345 155.354 192.445 163.651C196.189 171.544 201.993 178.28 209.245 183.151C216.406 187.87 224.82 190.326 233.395 190.2V190.2ZM278.395 60.0003H302.395V210H280.495C279.895 202.8 279.395 196.8 278.995 192C278.592 187.2 278.392 183.2 278.395 180V60.0003Z" fill="currentColor"/>
    <path d="M341.391 59.9998H365.391V210H341.391V59.9998ZM416.991 56.9998C424.348 56.8913 431.666 58.1107 438.591 60.5994C444.718 62.8243 450.258 66.4151 454.791 71.0994C459.303 75.8868 462.775 81.5557 464.991 87.7498C467.487 94.8285 468.706 102.294 468.591 109.8V210H444.591V115.8C444.591 104.203 441.891 95.5031 436.491 89.7C431.091 83.9012 422.991 81.0011 412.191 80.9998C404.155 80.9537 396.263 83.1342 389.391 87.2996C382.326 91.5639 376.405 97.4845 372.141 104.55C367.503 112.265 364.682 120.934 363.891 129.9L363.591 112.5C364.445 104.627 366.52 96.9348 369.741 89.7C372.62 83.2304 376.576 77.2962 381.441 72.1502C386.018 67.3323 391.534 63.5026 397.648 60.897C403.762 58.2914 410.345 56.9651 416.991 56.9998V56.9998Z" fill="currentColor"/>
    <path d="M497.086 66H585.286V88.5H497.086V66ZM574.786 0H637.786V24H574.786C570.14 23.7466 565.491 24.4616 561.136 26.0996C557.056 27.6838 553.624 30.5881 551.386 34.3496C548.986 38.25 547.786 43.8001 547.786 51H523.786C523.786 39 525.936 29.25 530.236 21.75C534.307 14.459 540.619 8.67328 548.236 5.25C555.933 1.75295 564.783 0.00294667 574.786 0V0ZM523.786 210V51H547.786V210H523.786ZM573.286 88.5V66H634.186V88.5H573.286ZM613.786 66H637.786V210H613.786V66Z" fill="currentColor"/>
    <path d="M678.283 0H702.283V210H678.283V0Z" fill="currentColor"/>
    <path d="M809.383 213C796.782 213.052 784.382 209.849 773.383 203.7C762.061 197.383 752.675 188.1 746.233 176.849C739.333 165.15 735.883 151.3 735.883 135.299C735.883 119.301 739.333 105.452 746.233 93.7497C752.723 82.4583 762.092 73.0898 773.383 66.5993C784.322 60.2694 796.745 56.9568 809.383 56.9997C821.975 56.9451 834.353 60.2595 845.233 66.5993C856.435 73.1043 865.703 82.4756 872.083 93.7497C878.88 105.45 882.28 119.3 882.283 135.299C882.283 151.302 878.883 165.152 872.083 176.849C865.752 188.083 856.466 197.369 845.233 203.7C834.292 209.859 821.937 213.064 809.383 213ZM809.383 190.5C817.7 190.522 825.875 188.349 833.083 184.2C840.74 179.736 847.02 173.248 851.233 165.45C855.93 157.153 858.28 147.103 858.283 135.299C858.283 123.502 855.933 113.452 851.233 105.15C846.969 97.3102 840.707 90.7377 833.083 86.0993C825.936 81.7717 817.738 79.4889 809.383 79.4997C801.001 79.4952 792.77 81.7215 785.533 85.9499C777.803 90.4857 771.431 97.0124 767.083 104.849C762.283 113.151 759.883 123.301 759.883 135.299C759.883 147.103 762.233 157.153 766.933 165.45C771.196 173.312 777.591 179.811 785.383 184.2C792.708 188.328 800.974 190.498 809.383 190.5V190.5Z" fill="currentColor"/>
    <path d="M966.281 189.3H959.081L1004.98 60H1031.08L974.081 210H951.581L894.881 60H920.981L966.281 189.3Z" fill="currentColor"/>
    <path d="M1063.78 180.6V210H1032.58V180.6H1063.78Z" fill="currentColor"/>
</svg>